<svg width="888" height="481" viewBox="0 0 888 481" fill="none" xmlns="http://www.w3.org/2000/svg">
    <g filter="url(#filter0_d_0_1)">
        <path d="M114.001 41.2453C114.001 41.5005 113.873 42.6491 113.618 44.6911C113.618 46.7332 113.49 49.7962 113.235 53.8802C112.725 60.772 112.725 64.6007 113.235 65.3665C112.725 66.6427 112.214 68.1742 111.704 69.961C111.193 71.7478 110.427 73.6621 109.406 75.7041L110.938 76.4699C107.875 86.6799 105.195 97.1452 102.897 107.866C102.387 110.418 100.728 114.119 97.92 118.969C95.1123 123.564 91.1559 129.179 86.0509 135.816C75.5856 149.344 68.5662 156.108 64.9927 156.108V157.64C63.9717 157.895 62.1849 158.533 59.6324 159.554C57.0799 160.32 56.1865 160.958 56.9522 161.468C57.4628 160.958 56.8246 160.703 55.0379 160.703C53.2511 160.703 50.3157 161.468 46.2317 163C42.4029 164.276 39.3399 164.914 37.0427 164.914C36.2769 164.914 35.1283 164.149 33.5968 162.617V161.468L31.6824 163C27.0879 159.937 20.8342 155.087 12.9214 148.451C10.8794 143.09 7.43355 137.092 2.58378 130.455L4.49816 128.541C2.2009 125.223 1.05227 120.756 1.05227 115.14C1.05227 111.567 1.81803 105.696 3.34953 97.5281C3.86004 93.4441 4.49816 90.1258 5.26392 87.5733C6.02967 85.0208 6.6678 83.1064 7.1783 81.8302L8.32693 79.5329L7.1783 78.7672C8.70981 77.2357 12.4109 70.8544 18.2817 59.6233C18.537 59.3681 18.9198 59.2405 19.4303 59.2405C19.9408 58.9852 20.4514 58.6023 20.9619 58.0918L19.0475 57.3261C23.8972 49.6685 31.0443 40.8624 40.4886 30.9076C44.5726 26.8236 48.6566 22.8672 52.7406 19.0384C56.8246 14.9544 60.9086 10.8704 64.9927 6.78637C71.6292 3.4681 76.7342 1.80897 80.3077 1.80897C80.8182 1.80897 81.0735 2.19185 81.0735 2.95761C81.0735 3.46811 81.3287 3.72336 81.8392 3.72336C82.605 3.72336 83.7536 3.59573 85.2851 3.34048C87.0719 2.82998 88.3481 2.57472 89.1139 2.57472C89.8796 2.57472 90.2625 2.9576 90.2625 3.72336C90.5178 4.48911 90.773 4.74436 91.0283 4.48911L92.9426 3.72336C96.5162 3.72336 100.855 8.95601 105.96 19.4213C111.321 29.8866 114.001 37.1612 114.001 41.2453ZM103.663 59.2405C103.663 37.5441 98.8134 22.1014 89.1139 12.9124C88.0929 13.4229 87.0719 13.9334 86.0509 14.4439C85.0299 14.9544 83.8812 15.4649 82.605 15.9754C71.6292 17.5069 59.76 25.2921 46.9975 39.3309C37.5532 49.7962 29.1299 61.5377 21.7276 74.5555C22.2381 75.066 22.4934 75.3213 22.4934 75.3213C22.4934 75.8318 22.3657 76.2146 22.1105 76.4699C15.2187 89.9982 11.7728 101.867 11.7728 112.077C11.7728 116.417 12.4109 119.48 13.6872 121.266C13.9425 127.392 15.3463 132.242 17.8988 135.816L24.0249 145.388C31.6824 149.727 35.5112 152.024 35.5112 152.279H49.2947C49.8052 152.279 50.1881 152.024 50.4433 151.514C50.9539 150.748 51.4644 150.365 51.9749 150.365C58.3561 150.365 66.5242 144.877 76.479 133.901C86.689 122.926 91.1559 114.247 89.8796 107.866C92.6874 105.058 94.857 100.719 96.3885 94.848C98.1753 87.1904 99.7068 82.3407 100.983 80.2987C100.983 75.4489 101.366 70.7268 102.132 66.1322C102.387 65.877 102.515 65.6217 102.515 65.3665C102.259 65.1112 102.004 64.856 101.749 64.6007C101.749 64.3455 101.494 63.9626 100.983 63.4521C102.77 61.9206 103.663 60.5167 103.663 59.2405ZM192.257 74.5555C192.257 76.8528 190.343 80.4263 186.514 85.2761C184.727 87.8286 183.323 89.9982 182.302 91.785C181.281 93.3165 180.643 94.7203 180.388 95.9966C179.112 99.3149 176.432 103.782 172.348 109.397C170.561 113.992 168.264 119.735 165.456 126.627C162.903 133.263 159.84 141.048 156.267 149.982L158.181 150.748C155.884 153.556 154.735 156.363 154.735 159.171C154.735 160.447 154.863 161.468 155.118 162.234L153.204 161.468C152.693 162.745 151.928 166.701 150.907 173.338C149.12 175.635 145.036 185.973 138.655 204.351C132.273 222.984 128.827 233.832 128.317 236.895C126.53 238.682 126.02 240.469 126.785 242.255C125.764 243.532 124.616 244.936 123.339 246.467C122.318 248.254 121.042 250.168 119.511 252.21C113.385 260.378 110.449 266.504 110.705 270.588H109.939C108.407 270.588 107.259 271.354 106.493 272.886C105.472 274.672 105.089 276.331 105.344 277.863C103.557 278.118 101.643 279.394 99.6011 281.692C97.5591 284.244 95.6447 286.541 93.858 288.584L86.2004 293.944C84.9242 293.944 81.8612 295.22 77.0114 297.773C72.1616 300.325 69.0986 301.601 67.8223 301.601C67.0566 301.601 66.4185 301.218 65.908 300.453C65.3975 299.942 64.7593 299.687 63.9936 299.687C63.4831 299.687 62.5897 299.942 61.3134 300.453C60.0372 301.218 59.1438 301.601 58.6333 301.601C57.6123 301.601 54.6769 299.432 49.8272 295.092C45.2326 291.008 42.5525 289.349 41.7867 290.115C34.6397 275.566 31.0662 265.866 31.0662 261.016C31.0662 260.506 31.4491 259.868 32.2148 259.102V256.805C32.2148 256.039 32.853 253.104 34.1292 247.999C36.1712 240.596 38.2132 234.087 40.2552 228.472C42.2972 222.856 44.3393 218.262 46.3813 214.688C52.252 203.968 60.2924 195.417 70.5025 189.036C71.013 189.546 71.6511 190.057 72.4169 190.567C72.9274 191.078 73.6931 191.588 74.7141 192.099C72.9274 194.141 70.8854 196.438 68.5881 198.99C66.2908 201.798 63.7383 204.989 60.9306 208.562C54.8045 215.965 51.3587 222.601 50.5929 228.472C49.5719 229.493 47.9128 233.96 45.6155 241.873C43.3183 250.041 42.1696 255.146 42.1696 257.188C42.1696 261.527 44.084 267.653 47.9128 275.566C51.9968 284.244 55.8256 288.584 59.3991 288.584C71.6511 288.584 85.1794 281.436 99.984 267.142C100.494 266.632 100.75 266.249 100.75 265.994L99.984 264.462C101.26 263.186 102.664 262.548 104.196 262.548C104.961 261.527 105.6 259.613 106.11 256.805C107.131 256.294 108.28 255.146 109.556 253.359C110.577 251.827 111.981 249.785 113.768 247.233C115.044 244.68 115.937 242.511 116.448 240.724C117.213 238.937 117.724 237.406 117.979 236.129C119.255 234.598 120.915 230.769 122.957 224.643C123.978 221.835 124.999 219.538 126.02 217.751C127.041 215.965 128.062 214.561 129.083 213.54L127.551 212.774C129.338 210.477 131.252 206.393 133.294 200.522C135.591 194.396 137.506 190.312 139.037 188.27C139.548 185.717 139.931 183.165 140.186 180.612C140.697 178.06 141.207 175.38 141.718 172.572C143.76 164.914 145.419 160.447 146.695 159.171L145.163 158.405V154.96L147.078 156.108C146.823 155.853 146.695 155.215 146.695 154.194C146.695 153.428 146.823 152.407 147.078 151.131C147.588 149.855 147.844 148.834 147.844 148.068C148.609 146.281 149.886 145.005 151.672 144.239C150.907 143.473 149.758 143.09 148.226 143.09C147.716 143.09 146.823 144.239 145.546 146.536C144.525 148.578 143.377 149.599 142.1 149.599C140.824 149.599 136.74 153.939 129.848 162.617C129.593 162.362 129.083 162.234 128.317 162.234C126.02 162.234 123.722 162.745 121.425 163.766H118.745C117.979 161.979 116.192 160.83 113.385 160.32L113.768 159.554C113.768 157.767 113.002 154.96 111.47 151.131C112.491 149.089 113.512 146.792 114.533 144.239C115.554 141.431 116.575 138.241 117.596 134.667C117.596 134.922 117.724 135.05 117.979 135.05L120.659 133.136L119.128 132.37C121.17 129.307 123.595 125.478 126.402 120.884C129.21 116.289 132.528 111.056 136.357 105.186C138.144 103.144 140.314 100.719 142.866 97.911C145.419 94.848 148.354 91.4021 151.672 87.5733C156.522 80.6815 162.265 74.045 168.902 67.6637C176.304 65.877 180.516 64.9836 181.537 64.9836C182.302 64.9836 183.196 65.3665 184.217 66.1322C185.493 66.898 186.642 67.919 187.663 69.1952C188.939 70.2163 189.96 71.2373 190.726 72.2583C191.747 73.2793 192.257 74.045 192.257 74.5555ZM165.456 97.1452C165.456 95.1032 164.307 93.0612 162.01 91.0192C160.734 92.5507 159.075 94.5927 157.033 97.1452C155.246 99.6977 153.076 102.761 150.524 106.334C147.971 108.121 144.653 112.205 140.569 118.586C136.485 124.968 131.507 133.774 125.637 145.005C125.892 145.515 126.02 146.153 126.02 146.919C126.02 147.43 126.147 148.195 126.402 149.216C126.402 147.43 127.168 146.536 128.7 146.536C130.231 146.536 130.869 146.919 130.614 147.685C132.401 146.409 134.06 144.75 135.591 142.708C137.378 140.666 139.293 138.368 141.335 135.816C142.1 134.284 143.504 132.753 145.546 131.221C147.588 129.69 148.865 128.541 149.375 127.775C148.865 125.223 152.693 118.331 160.861 107.1C162.393 101.74 163.924 98.4215 165.456 97.1452ZM269.47 69.5781C269.725 70.0886 269.98 70.5991 270.235 71.1096C270.491 71.6201 270.874 72.1306 271.384 72.6411C269.087 76.2146 266.407 79.6605 263.344 82.9788C261.812 88.0838 259.004 94.848 254.92 103.271L255.686 105.186C253.899 106.207 253.006 107.1 253.006 107.866C253.006 108.376 253.261 108.632 253.772 108.632C253.772 108.632 252.495 110.546 249.943 114.375L252.623 117.438L251.474 117.055C250.453 117.31 249.56 118.076 248.794 119.352L249.56 119.735L248.411 122.032L247.646 120.501C247.39 122.543 247.135 124.585 246.88 126.627C246.88 128.413 246.88 129.945 246.88 131.221L244.966 130.455C243.179 136.837 241.775 142.58 240.754 147.685C239.733 152.79 239.095 157.512 238.84 161.851C238.584 162.107 238.457 162.362 238.457 162.617C238.457 163.128 238.84 163.511 239.605 163.766C239.095 164.021 237.436 165.935 234.628 169.509C232.841 171.551 230.544 172.827 227.736 173.338L229.651 172.572C228.119 170.785 225.311 169.892 221.227 169.892L223.142 167.595C222.631 167.339 222.121 167.084 221.61 166.829C221.1 166.574 220.589 166.318 220.079 166.063C225.949 155.598 228.63 147.047 228.119 140.41C230.927 136.837 232.331 133.136 232.331 129.307C233.096 127.265 234.628 124.074 236.925 119.735V117.055L235.394 115.523C234.117 116.289 231.437 119.352 227.353 124.712C223.014 129.817 220.461 132.37 219.696 132.37C219.185 132.37 217.143 134.54 213.57 138.879C210.507 143.218 208.848 145.388 208.592 145.388C208.337 145.388 205.785 147.685 200.935 152.279C195.83 156.874 190.597 159.171 185.237 159.171V157.64H184.471C184.982 157.64 184.471 157.002 182.94 155.725C181.408 154.449 180.642 153.683 180.642 153.428L179.877 151.514C180.642 150.493 181.025 148.451 181.025 145.388C181.025 142.069 181.663 140.027 182.94 139.262C182.429 138.751 181.408 138.241 179.877 137.73C180.898 136.709 183.45 131.987 187.534 123.564C191.873 114.375 194.043 109.397 194.043 108.632L192.894 106.717C196.978 102.633 199.02 97.7834 199.02 92.1678C199.276 91.6573 200.169 90.6363 201.701 89.1048C200.68 88.5943 199.659 87.8286 198.638 86.8076L199.02 85.6589L198.255 84.5103C202.339 81.4473 204.381 79.7882 204.381 79.5329C204.891 79.5329 205.785 79.6605 207.061 79.9158C208.337 80.171 209.23 80.2987 209.741 80.2987C213.825 83.1064 217.271 85.0208 220.079 86.0418V90.2535C220.079 91.0192 219.696 91.4021 218.93 91.4021L217.781 91.0192C217.271 93.0612 213.953 97.911 207.827 105.569C206.806 105.569 205.912 107.866 205.146 112.46C202.849 114.247 200.935 117.948 199.403 123.564C198.893 125.606 198.255 127.775 197.489 130.073C196.723 132.115 196.085 134.157 195.574 136.199C194.809 136.199 194.426 136.326 194.426 136.582C194.426 137.603 196.085 138.113 199.403 138.113C201.956 138.113 207.061 132.625 214.718 121.649C216.505 120.628 217.398 119.097 217.398 117.055C220.461 114.502 223.014 112.333 225.056 110.546C227.098 108.759 228.757 107.228 230.033 105.951C234.373 100.846 237.436 96.1242 239.222 91.785C241.009 90.2535 244.072 85.6589 248.411 78.0014C252.751 70.0886 254.92 64.9836 254.92 62.6863C256.197 62.6863 258.239 62.4311 261.046 61.9206C263.854 61.1548 265.896 60.772 267.172 60.772C268.704 60.772 270.363 62.814 272.15 66.898L269.47 69.5781ZM239.605 113.609C239.095 113.098 238.584 112.843 238.074 112.843C237.053 112.843 236.032 113.354 235.011 114.375L237.691 116.672L236.925 114.375C237.436 113.354 238.329 113.098 239.605 113.609ZM335.327 88.722C335.072 89.2325 334.179 90.764 332.647 93.3165C331.371 95.6137 329.712 98.6767 327.67 102.506C325.883 106.079 323.969 110.035 321.927 114.375C319.885 118.459 318.098 122.415 316.566 126.244L314.652 135.05L313.121 138.879L312.355 148.068L310.44 154.577C308.398 157.384 306.739 159.554 305.463 161.086C304.442 162.617 303.804 163.511 303.549 163.766H299.72C299.209 163.766 298.571 163.383 297.806 162.617C297.295 161.596 296.657 160.575 295.891 159.554C295.381 158.278 294.615 157.129 293.594 156.108C292.828 154.832 292.062 154.066 291.297 153.811C293.083 152.279 295.891 148.961 299.72 143.856C299.465 142.58 300.23 140.283 302.017 136.964C303.804 133.391 305.208 130.838 306.229 129.307V127.01L302.4 126.244L294.742 127.392L279.045 128.924C278.279 130.455 277.385 132.37 276.364 134.667C275.599 136.709 274.705 138.751 273.684 140.793C272.919 142.58 272.28 144.239 271.77 145.771C271.259 147.302 271.004 148.451 271.004 149.216V159.554C269.983 160.575 269.728 161.596 270.238 162.617C268.452 162.362 266.537 163.255 264.495 165.297C263.474 164.532 261.177 163.255 257.603 161.468C258.624 157.129 260.028 151.897 261.815 145.771C263.857 139.389 266.41 131.987 269.473 123.564C271.004 121.266 272.919 117.438 275.216 112.077V111.695C275.216 110.418 276.492 107.228 279.045 102.123C281.597 96.5071 282.746 92.9336 282.49 91.4021C285.043 90.3811 286.319 89.2325 286.319 87.9562C286.319 84.8932 285.043 82.4683 282.49 80.6815C283.767 79.6605 285.298 78.3843 287.085 76.8528C289.127 75.066 291.424 73.024 293.977 70.7268C297.04 70.7268 299.209 72.5135 300.486 76.087C301.762 79.6605 302.528 81.3197 302.783 81.0644C300.741 84.8932 298.188 89.743 295.125 95.6137C292.318 101.229 288.872 107.866 284.788 115.523C283.511 117.565 283.001 118.459 283.256 118.203C283.767 117.948 283.639 118.714 282.873 120.501H283.639L287.468 119.735L290.148 117.438L292.445 118.203L295.508 117.438L308.526 117.055C310.313 113.737 312.227 110.035 314.269 105.951C316.566 101.867 317.715 99.1872 317.715 97.911C317.715 96.1242 317.587 94.7204 317.332 93.6993C317.077 93.1888 317.205 91.2745 317.715 87.9562C320.268 83.1064 323.841 80.4263 328.436 79.9158C333.03 82.7236 335.327 85.6589 335.327 88.722ZM490.799 77.6185C490.799 78.6395 490.033 79.7882 488.502 81.0644C487.226 82.3407 486.46 83.3617 486.205 84.1274C484.673 84.6379 480.972 89.9982 475.101 100.208C474.08 100.208 472.549 102.378 470.507 106.717C468.465 111.312 467.316 113.737 467.061 113.992C466.295 114.502 465.274 114.502 463.998 113.992C462.977 113.481 461.956 113.226 460.935 113.226V112.46C461.19 110.674 460.552 108.887 459.02 107.1C463.36 104.292 465.529 101.485 465.529 98.6767C465.529 94.848 464.764 92.9336 463.232 92.9336C462.977 92.9336 461.19 94.3375 457.872 97.1452C456.34 98.4215 455.064 99.4425 454.043 100.208C453.277 100.974 452.767 101.484 452.512 101.74L454.426 102.506C453.915 103.271 452.512 104.292 450.214 105.569C447.917 106.59 446.768 107.738 446.768 109.014L447.917 110.163C444.599 111.439 440.898 116.034 436.814 123.947C432.474 132.115 430.305 137.985 430.305 141.559C430.305 141.814 430.943 143.218 432.219 145.771C433.751 148.068 434.261 150.237 433.751 152.279C434.772 152.279 436.431 152.407 438.728 152.662C441.025 152.918 442.684 153.045 443.705 153.045C445.492 153.045 449.704 151.003 456.34 146.919C463.232 142.58 466.933 139.772 467.444 138.496C468.465 137.985 469.358 137.475 470.124 136.964C470.89 136.454 471.783 135.943 472.804 135.433L472.038 133.136L474.336 133.519C478.42 126.882 481.738 122.926 484.29 121.649C484.546 121.394 484.928 121.266 485.439 121.266C486.205 121.266 486.843 121.394 487.353 121.649H489.651V125.095C487.353 127.903 486.205 129.817 486.205 130.838C486.205 131.349 486.46 131.859 486.97 132.37C486.46 132.625 485.567 133.774 484.29 135.816C483.014 137.603 481.865 138.496 480.844 138.496C479.823 138.241 479.313 138.241 479.313 138.496L480.462 139.645C479.185 140.41 476.888 141.942 473.57 144.239C470.507 146.536 466.167 149.599 460.552 153.428C449.321 161.086 442.812 164.914 441.025 164.914C435.154 164.914 427.88 161.213 419.201 153.811C419.201 153.3 419.201 152.535 419.201 151.514C419.201 150.237 419.074 148.961 418.818 147.685V141.942C418.818 139.645 419.457 136.837 420.733 133.519C422.264 129.945 423.03 127.903 423.03 127.392C423.03 126.371 422.647 125.478 421.881 124.712C423.158 124.202 424.434 122.415 425.71 119.352C427.242 116.289 428.39 114.502 429.156 113.992C430.177 113.481 431.453 113.226 432.985 113.226C432.474 113.226 432.219 112.588 432.219 111.312C432.219 110.801 435.282 107.228 441.408 100.591C447.534 93.6993 450.98 89.3601 451.746 87.5733C455.319 84.2551 458.127 81.5749 460.169 79.5329C462.466 77.4909 464.125 76.087 465.146 75.3213C471.017 70.2162 475.995 67.0256 480.079 65.7494L481.993 67.6637C483.525 67.919 485.311 69.3229 487.353 71.8754C489.651 74.1726 490.799 76.087 490.799 77.6185ZM602.159 87.9562C596.799 99.1872 594.119 105.058 594.119 105.569C592.332 106.079 589.014 112.588 584.164 125.095C580.591 134.284 578.804 140.666 578.804 144.239C578.804 146.026 578.932 147.302 579.187 148.068C578.166 149.599 577.783 152.024 578.038 155.342C576.507 160.192 574.592 162.617 572.295 162.617C572.04 162.617 571.912 162.745 571.912 163C571.912 163.511 571.657 163.766 571.146 163.766C570.891 163.766 569.998 163.511 568.466 163L566.169 162.234C566.68 161.979 566.041 161.468 564.255 160.703C562.468 159.937 561.447 158.916 561.192 157.64C561.192 150.748 564.255 141.176 570.381 128.924C576.762 115.906 580.08 106.59 580.336 100.974C575.996 103.016 569.104 111.056 559.66 125.095C559.66 125.861 558.894 126.244 557.363 126.244C547.663 137.475 542.814 144.494 542.814 147.302C540.516 147.813 537.964 149.855 535.156 153.428C532.093 157.002 530.179 158.788 529.413 158.788C526.605 158.788 523.287 156.874 519.458 153.045C522.266 145.132 524.818 138.241 527.116 132.37C529.413 126.499 531.583 121.522 533.625 117.438L530.944 116.289C530.944 115.268 532.093 114.119 534.39 112.843L532.859 111.312C532.859 112.333 531.965 112.971 530.179 113.226C528.647 113.481 527.881 114.119 527.881 115.14C526.605 115.906 526.605 116.672 527.881 117.438C523.542 120.245 517.416 127.265 509.503 138.496C501.846 149.472 497.762 157.384 497.251 162.234C495.209 162.489 493.933 163.893 493.423 166.446C488.828 167.977 486.914 168.743 487.679 168.743C486.658 168.743 485.254 167.595 483.468 165.297C481.681 163 480.788 161.341 480.788 160.32C480.788 159.299 481.17 158.661 481.936 158.405C482.702 157.895 483.085 157.512 483.085 157.257C483.595 155.47 484.233 153.045 484.999 149.982C486.02 146.664 487.424 142.58 489.211 137.73C493.04 127.265 495.72 121.394 497.251 120.118L495.337 118.203C497.379 114.63 499.676 109.142 502.229 101.74C504.781 94.0822 506.313 88.7219 506.823 85.6589C509.631 83.6169 512.566 82.5959 515.629 82.5959C516.65 82.5959 518.948 84.8932 522.521 89.4877C518.948 94.848 515.119 103.654 511.035 115.906C513.077 114.119 515.374 112.205 517.927 110.163C520.734 107.866 523.797 105.313 527.116 102.506C527.371 101.485 527.371 100.208 527.116 98.6767C529.668 97.6557 531.2 95.6137 531.71 92.5507C531.965 89.9982 533.625 88.4667 536.688 87.9562L538.602 89.1048C539.368 89.1048 540.133 88.8496 540.899 88.3391C541.92 87.5733 542.686 87.1904 543.196 87.1904C544.473 87.1904 544.856 87.4457 544.345 87.9562C543.835 88.4667 543.835 88.8496 544.345 89.1048L546.259 87.1904C548.557 89.4877 550.216 90.764 551.237 91.0192C550.726 94.0822 549.961 97.911 548.94 102.506C547.919 106.845 546.77 111.95 545.494 117.821C544.217 118.331 543.579 118.969 543.579 119.735C543.579 120.245 543.835 120.756 544.345 121.266C544.09 121.011 543.835 120.884 543.579 120.884C543.069 121.394 542.558 122.032 542.048 122.798L544.345 125.478C544.6 125.223 544.728 124.84 544.728 124.329C544.728 123.819 544.473 123.308 543.962 122.798C545.238 121.522 547.919 118.842 552.003 114.758C556.342 110.418 561.957 104.675 568.849 97.5281C583.143 83.2341 590.418 76.087 590.673 76.087C591.694 76.3423 592.715 76.5975 593.736 76.8528C594.757 77.108 595.906 77.4909 597.182 78.0014C597.693 78.0014 598.203 77.7462 598.714 77.2357L597.948 76.4699C598.203 77.4909 598.969 78.0014 600.245 78.0014L602.159 79.9158V87.9562ZM511.418 115.906L508.355 118.969L509.12 120.118L512.566 116.672L511.418 115.906ZM509.12 120.501L506.823 121.649V122.798L509.503 121.649L509.12 120.501ZM659.259 92.5507C659.259 103.016 656.451 113.864 650.836 125.095C649.815 127.137 647.773 130.583 644.71 135.433C641.902 140.027 638.073 146.281 633.223 154.194C632.458 154.194 631.437 154.704 630.16 155.725C628.884 156.491 627.608 157.384 626.331 158.405C625.055 159.426 623.907 160.447 622.886 161.468C621.865 162.234 621.354 162.617 621.354 162.617C621.099 162.617 620.844 162.745 620.588 163C620.588 162.745 619.95 163 618.674 163.766C617.398 164.532 615.994 164.914 614.462 164.914C612.42 164.914 609.485 165.553 605.656 166.829C604.89 166.318 604.252 165.808 603.742 165.297L602.976 164.532C600.679 163.511 598.637 161.086 596.85 157.257C595.063 153.428 593.787 150.365 593.021 148.068L594.553 146.919C594.553 137.73 596.339 130.583 599.913 125.478C602.21 122.16 603.869 119.607 604.89 117.821C606.167 116.034 606.932 115.013 607.188 114.758C607.698 113.481 607.698 112.588 607.188 112.077C615.1 104.42 620.078 97.6557 622.12 91.785C622.886 91.2745 625.949 87.9562 631.309 81.8302C634.627 77.7462 638.201 75.3213 642.029 74.5555L643.944 72.6411H647.773C649.815 72.6411 652.239 75.3213 655.047 80.6815C657.855 85.7866 659.259 89.743 659.259 92.5507ZM649.304 94.4651C648.283 93.6993 647.645 92.6783 647.39 91.4021V91.785C647.39 91.5297 647.262 91.2745 647.007 91.0192L645.858 90.2535C645.348 90.5087 644.837 90.8916 644.327 91.4021C643.816 91.9126 643.05 92.4231 642.029 92.9336L640.115 92.1678C634.755 98.5491 629.65 103.654 624.8 107.483L626.331 108.632C622.247 110.674 617.781 116.034 612.931 124.712C608.081 133.391 605.656 140.027 605.656 144.622C605.656 147.94 606.167 149.982 607.188 150.748C608.719 152.535 610.761 153.428 613.314 153.428C613.824 153.428 614.462 153.045 615.228 152.279L617.142 151.514C617.653 151.514 617.908 151.258 617.908 150.748C617.908 149.982 618.291 149.599 619.057 149.599C620.078 149.599 622.758 147.43 627.097 143.09C631.947 138.496 634.882 135.433 635.903 133.901C636.924 132.37 641.136 122.543 648.538 104.42C648.028 103.399 647.262 101.867 646.241 99.8254C646.752 99.5701 647.134 99.3149 647.39 99.0596C647.9 98.8044 648.411 98.5491 648.921 98.2939C648.155 97.5281 647.262 96.7624 646.241 95.9966C646.752 95.7414 647.262 95.6137 647.773 95.6137C648.283 95.3585 648.794 94.9756 649.304 94.4651ZM631.315 171.04C636.93 167.722 656.84 144.75 691.044 102.123C692.32 100.846 693.341 99.4425 694.107 97.911C695.128 96.3795 696.276 94.5927 697.553 92.5507C698.063 89.4877 698.574 87.3181 699.084 86.0418C699.595 84.5103 699.85 83.9998 699.85 84.5103C701.637 83.7446 702.913 82.9788 703.679 82.213L701.764 81.4473C702.53 80.9368 703.168 80.171 703.679 79.15C704.189 78.6395 704.189 78.0014 703.679 77.2357H706.359L705.976 74.9384C707.507 73.6621 708.528 72.003 709.039 69.961C712.357 66.898 715.803 65.3665 719.377 65.3665C720.142 65.3665 720.653 65.877 720.908 66.898C721.419 67.919 722.057 68.4295 722.822 68.4295C722.822 73.2793 722.44 78.129 721.674 82.9788C720.653 89.3601 719.759 95.1032 718.994 100.208C718.228 105.058 717.335 109.27 716.314 112.843C715.548 114.885 714.782 116.927 714.016 118.969C713.251 121.011 712.868 123.181 712.868 125.478C712.102 128.286 712.102 130.2 712.868 131.221C712.868 131.476 712.485 131.732 711.719 131.987C711.208 132.242 710.953 132.753 710.953 133.519C710.698 134.284 710.57 135.305 710.57 136.582C710.826 137.603 710.953 138.879 710.953 140.41C710.698 141.687 710.57 142.963 710.57 144.239C710.57 145.26 710.315 146.153 709.805 146.919C710.06 147.174 710.315 147.685 710.57 148.451C710.826 148.961 711.591 149.727 712.868 150.748L712.102 157.64C710.315 157.895 706.486 159.809 700.616 163.383C696.532 163.383 692.958 160.83 689.895 155.725L690.661 151.514C691.682 151.769 692.83 150.748 694.107 148.451L695.255 140.41C697.042 138.879 698.191 135.05 698.701 128.924C699.212 128.413 699.595 127.265 699.85 125.478C700.36 123.436 701.126 121.011 702.147 118.203C702.402 116.161 702.658 114.247 702.913 112.46C703.168 110.418 703.423 108.504 703.679 106.717C703.423 106.972 703.423 107.1 703.679 107.1L706.359 105.186L706.742 101.74L705.21 100.208C687.598 125.478 670.879 146.153 655.053 162.234L653.905 163.383L654.288 164.914H653.139C651.863 164.914 649.821 167.85 647.013 173.721C644.716 179.847 641.397 182.91 637.058 182.91L630.549 177.932L631.315 171.04ZM694.49 147.685C694.49 148.195 694.234 148.578 693.724 148.834C693.469 148.834 693.596 148.706 694.107 148.451C694.107 148.451 694.234 148.195 694.49 147.685ZM813.124 69.5781C813.38 70.0886 813.635 70.5991 813.89 71.1096C814.145 71.6201 814.528 72.1306 815.039 72.6411C812.742 76.2146 810.061 79.6605 806.998 82.9788C805.467 88.0838 802.659 94.848 798.575 103.271L799.341 105.186C797.554 106.207 796.661 107.1 796.661 107.866C796.661 108.376 796.916 108.632 797.426 108.632C797.426 108.632 796.15 110.546 793.598 114.375L796.278 117.438L795.129 117.055C794.108 117.31 793.215 118.076 792.449 119.352L793.215 119.735L792.066 122.032L791.3 120.501C791.045 122.543 790.79 124.585 790.535 126.627C790.535 128.413 790.535 129.945 790.535 131.221L788.62 130.455C786.834 136.837 785.43 142.58 784.409 147.685C783.388 152.79 782.75 157.512 782.494 161.851C782.239 162.107 782.111 162.362 782.111 162.617C782.111 163.128 782.494 163.511 783.26 163.766C782.75 164.021 781.09 165.935 778.283 169.509C776.496 171.551 774.199 172.827 771.391 173.338L773.305 172.572C771.774 170.785 768.966 169.892 764.882 169.892L766.796 167.595C766.286 167.339 765.775 167.084 765.265 166.829C764.754 166.574 764.244 166.318 763.733 166.063C769.604 155.598 772.284 147.047 771.774 140.41C774.582 136.837 775.985 133.136 775.985 129.307C776.751 127.265 778.283 124.074 780.58 119.735V117.055L779.048 115.523C777.772 116.289 775.092 119.352 771.008 124.712C766.669 129.817 764.116 132.37 763.35 132.37C762.84 132.37 760.798 134.54 757.224 138.879C754.161 143.218 752.502 145.388 752.247 145.388C751.992 145.388 749.439 147.685 744.59 152.279C739.485 156.874 734.252 159.171 728.892 159.171V157.64H728.126C728.636 157.64 728.126 157.002 726.594 155.725C725.063 154.449 724.297 153.683 724.297 153.428L723.531 151.514C724.297 150.493 724.68 148.451 724.68 145.388C724.68 142.069 725.318 140.027 726.594 139.262C726.084 138.751 725.063 138.241 723.531 137.73C724.552 136.709 727.105 131.987 731.189 123.564C735.528 114.375 737.698 109.397 737.698 108.632L736.549 106.717C740.633 102.633 742.675 97.7834 742.675 92.1678C742.93 91.6573 743.824 90.6363 745.355 89.1048C744.334 88.5943 743.313 87.8286 742.292 86.8076L742.675 85.6589L741.909 84.5103C745.993 81.4473 748.035 79.7882 748.035 79.5329C748.546 79.5329 749.439 79.6605 750.716 79.9158C751.992 80.171 752.885 80.2987 753.396 80.2987C757.48 83.1064 760.926 85.0208 763.733 86.0418V90.2535C763.733 91.0192 763.35 91.4021 762.585 91.4021L761.436 91.0192C760.926 93.0612 757.607 97.911 751.481 105.569C750.46 105.569 749.567 107.866 748.801 112.46C746.504 114.247 744.59 117.948 743.058 123.564C742.548 125.606 741.909 127.775 741.144 130.073C740.378 132.115 739.74 134.157 739.229 136.199C738.463 136.199 738.081 136.326 738.081 136.582C738.081 137.603 739.74 138.113 743.058 138.113C745.611 138.113 750.716 132.625 758.373 121.649C760.16 120.628 761.053 119.097 761.053 117.055C764.116 114.502 766.669 112.333 768.711 110.546C770.753 108.759 772.412 107.228 773.688 105.951C778.027 100.846 781.09 96.1242 782.877 91.785C784.664 90.2535 787.727 85.6589 792.066 78.0014C796.405 70.0886 798.575 64.9836 798.575 62.6863C799.851 62.6863 801.893 62.4311 804.701 61.9206C807.509 61.1548 809.551 60.772 810.827 60.772C812.359 60.772 814.018 62.814 815.805 66.898L813.124 69.5781ZM783.26 113.609C782.75 113.098 782.239 112.843 781.729 112.843C780.708 112.843 779.687 113.354 778.666 114.375L781.346 116.672L780.58 114.375C781.09 113.354 781.984 113.098 783.26 113.609ZM886.64 192.099C886.129 192.609 884.853 193.502 882.811 194.779C881.024 196.055 878.344 197.714 874.771 199.756C867.879 204.351 864.05 206.648 863.284 206.648H844.906C844.14 206.648 842.354 205.882 839.546 204.351C836.993 202.819 835.207 202.053 834.186 202.053L832.271 202.819C829.208 202.819 823.337 194.396 814.659 177.549V158.788L816.573 160.32C817.594 159.299 817.85 158.533 817.339 158.023C818.36 157.002 819.892 154.066 821.934 149.216C823.72 144.877 824.358 141.942 823.848 140.41C825.635 140.155 827.294 137.858 828.825 133.519C828.315 134.284 827.932 134.922 827.677 135.433C827.421 135.943 827.166 136.454 826.911 136.964C826.656 137.475 826.4 137.858 826.145 138.113L824.997 136.199C821.423 140.538 816.829 148.961 811.213 161.468C810.958 161.213 810.703 161.086 810.447 161.086C810.192 161.086 809.554 161.341 808.533 161.851C807.767 162.107 807.129 162.234 806.618 162.234C805.342 162.234 803.938 161.468 802.407 159.937C800.62 158.15 799.727 156.619 799.727 155.342C799.727 153.811 801.258 149.216 804.321 141.559C807.384 133.646 809.426 129.307 810.447 128.541L808.916 127.775C810.447 126.754 811.213 123.436 811.213 117.821C812.489 116.8 814.531 111.056 817.339 100.591L822.316 80.6815C822.827 79.6605 823.082 79.15 823.082 79.15C822.827 78.6395 822.827 77.3633 823.082 75.3213C823.593 73.024 824.486 68.94 825.762 63.0692H828.825L832.654 62.6863C833.42 63.4521 834.313 64.3455 835.334 65.3665C836.61 66.3875 838.014 67.5361 839.546 68.8124C838.78 70.0886 837.887 71.6201 836.866 73.4069C836.1 75.1936 835.334 77.2357 834.568 79.5329H834.951L830.357 95.2309H829.974C829.719 95.9966 829.591 96.1242 829.591 95.6137L828.825 95.9966C828.06 98.2939 827.294 100.719 826.528 103.271C825.762 105.569 825.507 107.483 825.762 109.014C822.699 110.801 821.551 114.885 822.316 121.266C822.316 121.011 822.061 120.884 821.551 120.884C820.785 120.884 820.274 121.266 820.019 122.032L820.402 122.415H821.934C844.14 102.506 858.817 92.5507 865.964 92.5507C866.475 92.5507 866.858 92.9336 867.113 93.6993C867.623 94.2098 868.134 94.7204 868.644 95.2309L869.027 96.3795L870.176 101.74C857.924 113.226 847.076 126.499 837.631 141.559C834.824 145.388 832.526 150.876 830.74 158.023C829.463 161.851 828.315 165.042 827.294 167.595C826.273 170.402 825.379 172.444 824.614 173.721C833.037 189.291 839.929 197.076 845.289 197.076C846.565 197.076 848.224 196.948 850.266 196.693C852.564 196.438 854.35 196.31 855.627 196.31C855.882 196.31 856.01 196.693 856.01 197.459C856.01 198.225 856.265 198.48 856.775 198.225L857.541 197.459C859.838 197.459 862.646 196.566 865.964 194.779C869.538 193.247 871.708 192.481 872.473 192.481C872.984 192.481 873.75 192.609 874.771 192.864C875.792 193.375 876.557 193.63 877.068 193.63C877.323 193.375 877.961 192.992 878.982 192.481C880.003 191.971 881.535 191.078 883.577 189.801L886.64 192.099Z" fill="white"/>
    </g>
    <g filter="url(#filter1_d_0_1)">
        <path d="M257.319 266.388C257.064 266.898 256.171 268.43 254.639 270.982C253.363 273.28 251.704 276.343 249.662 280.171C247.875 283.745 245.961 287.701 243.919 292.041C241.877 296.125 240.09 300.081 238.558 303.91L236.644 312.716L235.113 316.545L234.347 325.734L232.432 332.243C230.39 335.05 228.731 337.22 227.455 338.752C226.434 340.283 225.796 341.176 225.541 341.432H221.712C221.201 341.432 220.563 341.049 219.797 340.283C219.287 339.262 218.649 338.241 217.883 337.22C217.373 335.944 216.607 334.795 215.586 333.774C214.82 332.498 214.054 331.732 213.289 331.477C215.075 329.945 217.883 326.627 221.712 321.522C221.457 320.246 222.222 317.949 224.009 314.63C225.796 311.057 227.2 308.504 228.221 306.973V304.675L224.392 303.91L216.734 305.058L201.037 306.59C200.271 308.121 199.377 310.036 198.356 312.333C197.591 314.375 196.697 316.417 195.676 318.459C194.911 320.246 194.272 321.905 193.762 323.436C193.251 324.968 192.996 326.117 192.996 326.882V337.22C191.975 338.241 191.72 339.262 192.23 340.283C190.444 340.028 188.529 340.921 186.487 342.963C185.466 342.197 183.169 340.921 179.595 339.134C180.616 334.795 182.02 329.562 183.807 323.436C185.849 317.055 188.402 309.653 191.465 301.23C192.996 298.932 194.911 295.104 197.208 289.743V289.36C197.208 288.084 198.484 284.894 201.037 279.789C203.589 274.173 204.738 270.599 204.482 269.068C207.035 268.047 208.311 266.898 208.311 265.622C208.311 262.559 207.035 260.134 204.482 258.347C205.759 257.326 207.29 256.05 209.077 254.519C211.119 252.732 213.416 250.69 215.969 248.393C219.032 248.393 221.201 250.179 222.478 253.753C223.754 257.326 224.52 258.986 224.775 258.73C222.733 262.559 220.18 267.409 217.117 273.28C214.31 278.895 210.864 285.532 206.78 293.189C205.503 295.231 204.993 296.125 205.248 295.869C205.759 295.614 205.631 296.38 204.865 298.167H205.631L209.46 297.401L212.14 295.104L214.437 295.869L217.5 295.104L230.518 294.721C232.305 291.402 234.219 287.701 236.261 283.617C238.558 279.533 239.707 276.853 239.707 275.577C239.707 273.79 239.579 272.386 239.324 271.365C239.069 270.855 239.197 268.94 239.707 265.622C242.26 260.772 245.833 258.092 250.428 257.582C255.022 260.389 257.319 263.325 257.319 266.388ZM336.207 247.627C336.207 248.393 335.314 249.669 333.527 251.456C331.74 252.987 330.847 254.136 330.847 254.902C330.847 255.157 331.102 255.54 331.612 256.05C330.336 257.326 327.018 263.452 321.658 274.428C316.553 285.659 313.872 292.041 313.617 293.572C312.851 294.338 312.469 294.976 312.469 295.486C312.469 295.997 312.596 296.38 312.851 296.635H312.469C312.213 296.635 311.83 297.018 311.32 297.784C310.809 298.549 310.427 298.932 310.171 298.932L312.086 301.612C309.278 307.483 306.725 314.375 304.428 322.288C302.386 330.201 300.472 339.134 298.685 349.089H291.793C290.772 349.089 289.496 348.068 287.964 346.026C286.688 344.239 286.305 342.963 286.816 342.197C286.561 342.453 286.178 342.58 285.667 342.58C285.412 342.58 285.157 342.197 284.901 341.432C284.901 339.9 285.922 338.752 287.964 337.986L286.05 337.22C290.134 334.923 291.793 330.583 291.027 324.202C294.346 321.905 295.75 316.289 295.239 307.356L297.919 305.058C297.919 304.803 297.792 304.675 297.536 304.675C297.536 304.675 294.218 307.994 287.582 314.63C280.945 321.267 277.372 324.585 276.861 324.585C275.84 324.585 273.67 326.882 270.352 331.477C266.779 336.071 264.737 338.369 264.226 338.369C262.695 338.369 260.397 338.752 257.334 339.517C254.527 340.028 252.357 340.283 250.825 340.283C250.315 340.028 248.401 336.199 245.082 328.797C250.953 316.545 261.801 301.612 277.627 284C291.41 268.685 304.811 255.923 317.829 245.713C322.423 240.352 325.869 237.672 328.167 237.672C329.698 237.672 331.357 238.183 333.144 239.204C335.186 243.288 336.207 246.095 336.207 247.627ZM310.171 267.919C309.15 268.175 306.725 269.706 302.897 272.514C302.641 272.769 302.514 273.024 302.514 273.28C302.514 273.535 302.386 273.918 302.131 274.428V276.343C299.578 278.385 296.643 281.065 293.325 284.383C290.006 287.446 286.178 291.147 281.838 295.486C280.052 296.252 278.393 297.401 276.861 298.932L278.01 300.464C275.712 300.974 269.969 307.866 260.78 321.139L263.077 323.436C263.843 322.671 264.481 322.288 264.992 322.288C265.502 322.288 265.885 322.415 266.141 322.671L265.758 321.522L266.906 320.756C269.714 320.756 272.267 317.693 274.564 311.567C275.074 312.078 275.712 312.333 276.478 312.333L275.712 310.802L276.478 309.653C279.796 305.569 284.008 300.591 289.113 294.721C294.218 288.85 300.344 282.213 307.491 274.811C306.215 273.535 305.577 272.897 305.577 272.897C305.577 272.641 305.704 272.514 305.96 272.514C306.981 273.024 307.619 273.28 307.874 273.28C307.874 271.238 308.64 269.451 310.171 267.919ZM503.108 252.221C503.108 254.519 501.194 258.092 497.365 262.942C495.578 265.494 494.174 267.664 493.153 269.451C492.132 270.982 491.494 272.386 491.239 273.662C489.963 276.981 487.283 281.448 483.199 287.063C481.412 291.658 479.115 297.401 476.307 304.293C473.754 310.929 470.691 318.714 467.118 327.648L469.032 328.414C466.735 331.222 465.586 334.029 465.586 336.837C465.586 338.113 465.714 339.134 465.969 339.9L464.055 339.134C463.544 340.411 462.779 344.367 461.758 351.004C459.971 353.301 455.887 363.638 449.505 382.017C443.124 400.65 439.678 411.498 439.168 414.561C437.381 416.348 436.871 418.135 437.636 419.921C436.615 421.198 435.467 422.601 434.19 424.133C433.169 425.92 431.893 427.834 430.362 429.876C424.236 438.044 421.3 444.17 421.555 448.254H420.79C419.258 448.254 418.11 449.02 417.344 450.551C416.323 452.338 415.94 453.997 416.195 455.529C414.408 455.784 412.494 457.06 410.452 459.358C408.41 461.91 406.496 464.207 404.709 466.249L397.051 471.61C395.775 471.61 392.712 472.886 387.862 475.438C383.013 477.991 379.95 479.267 378.673 479.267C377.908 479.267 377.269 478.884 376.759 478.119C376.248 477.608 375.61 477.353 374.845 477.353C374.334 477.353 373.441 477.608 372.164 478.119C370.888 478.884 369.995 479.267 369.484 479.267C368.463 479.267 365.528 477.098 360.678 472.758C356.084 468.674 353.403 467.015 352.638 467.781C345.491 453.232 341.917 443.532 341.917 438.682C341.917 438.172 342.3 437.534 343.066 436.768V434.471C343.066 433.705 343.704 430.77 344.98 425.664C347.022 418.262 349.064 411.753 351.106 406.138C353.148 400.522 355.19 395.928 357.232 392.354C363.103 381.634 371.143 373.083 381.353 366.701C381.864 367.212 382.502 367.723 383.268 368.233C383.778 368.744 384.544 369.254 385.565 369.765C383.778 371.807 381.736 374.104 379.439 376.656C377.142 379.464 374.589 382.655 371.782 386.228C365.656 393.63 362.21 400.267 361.444 406.138C360.423 407.159 358.764 411.626 356.466 419.538C354.169 427.706 353.021 432.812 353.021 434.854C353.021 439.193 354.935 445.319 358.764 453.232C362.848 461.91 366.677 466.249 370.25 466.249C382.502 466.249 396.03 459.102 410.835 444.808C411.345 444.298 411.601 443.915 411.601 443.66L410.835 442.128C412.111 440.852 413.515 440.214 415.047 440.214C415.812 439.193 416.45 437.278 416.961 434.471C417.982 433.96 419.131 432.812 420.407 431.025C421.428 429.493 422.832 427.451 424.618 424.899C425.895 422.346 426.788 420.177 427.299 418.39C428.064 416.603 428.575 415.072 428.83 413.795C430.106 412.264 431.766 408.435 433.808 402.309C434.829 399.501 435.85 397.204 436.871 395.417C437.892 393.63 438.913 392.227 439.934 391.206L438.402 390.44C440.189 388.143 442.103 384.059 444.145 378.188C446.442 372.062 448.357 367.978 449.888 365.936C450.399 363.383 450.782 360.831 451.037 358.278C451.547 355.726 452.058 353.046 452.568 350.238C454.61 342.58 456.27 338.113 457.546 336.837L456.014 336.071V332.625L457.929 333.774C457.674 333.519 457.546 332.881 457.546 331.86C457.546 331.094 457.674 330.073 457.929 328.797C458.439 327.52 458.695 326.499 458.695 325.734C459.46 323.947 460.737 322.671 462.523 321.905C461.758 321.139 460.609 320.756 459.077 320.756C458.567 320.756 457.674 321.905 456.397 324.202C455.376 326.244 454.228 327.265 452.951 327.265C451.675 327.265 447.591 331.604 440.699 340.283C440.444 340.028 439.934 339.9 439.168 339.9C436.871 339.9 434.573 340.411 432.276 341.432H429.596C428.83 339.645 427.043 338.496 424.236 337.986L424.618 337.22C424.618 335.433 423.853 332.625 422.321 328.797C423.342 326.755 424.363 324.457 425.384 321.905C426.405 319.097 427.426 315.907 428.447 312.333C428.447 312.588 428.575 312.716 428.83 312.716L431.51 310.802L429.979 310.036C432.021 306.973 434.446 303.144 437.253 298.549C440.061 293.955 443.379 288.722 447.208 282.852C448.995 280.81 451.165 278.385 453.717 275.577C456.27 272.514 459.205 269.068 462.523 265.239C467.373 258.347 473.116 251.711 479.753 245.33C487.155 243.543 491.367 242.649 492.388 242.649C493.153 242.649 494.047 243.032 495.068 243.798C496.344 244.564 497.493 245.585 498.514 246.861C499.79 247.882 500.811 248.903 501.577 249.924C502.598 250.945 503.108 251.711 503.108 252.221ZM476.307 274.811C476.307 272.769 475.158 270.727 472.861 268.685C471.585 270.217 469.926 272.259 467.884 274.811C466.097 277.364 463.927 280.427 461.375 284C458.822 285.787 455.504 289.871 451.42 296.252C447.336 302.633 442.358 311.44 436.488 322.671C436.743 323.181 436.871 323.819 436.871 324.585C436.871 325.096 436.998 325.861 437.253 326.882C437.253 325.096 438.019 324.202 439.551 324.202C441.082 324.202 441.72 324.585 441.465 325.351C443.252 324.075 444.911 322.415 446.442 320.373C448.229 318.331 450.144 316.034 452.186 313.482C452.951 311.95 454.355 310.419 456.397 308.887C458.439 307.356 459.716 306.207 460.226 305.441C459.716 302.889 463.544 295.997 471.712 284.766C473.244 279.406 474.775 276.087 476.307 274.811ZM502.597 300.464C501.32 296.635 499.406 294.465 496.854 293.955C500.172 287.063 503.235 280.554 506.043 274.428C509.106 268.047 511.913 262.176 514.466 256.816C514.721 256.305 514.849 255.923 514.849 255.667C514.849 255.412 514.976 255.029 515.232 254.519C516.508 253.753 517.401 252.732 517.912 251.456C518.677 250.945 521.613 247.244 526.718 240.352L527.484 239.586C526.973 239.076 526.718 238.821 526.718 238.821C528.249 237.8 531.951 233.588 537.821 226.186L537.438 225.803C537.438 224.782 538.077 224.271 539.353 224.271C539.353 224.271 542.671 220.953 549.308 214.317C555.689 207.425 560.028 203.979 562.325 203.979C571.514 203.979 577.896 206.914 581.469 212.785C581.214 219.932 577.768 226.952 571.132 233.843C569.09 235.63 566.665 237.927 563.857 240.735C561.049 243.543 557.731 246.734 553.902 250.307C553.392 251.073 552.498 251.456 551.222 251.456C550.456 252.221 549.052 253.37 547.01 254.902C545.224 256.433 544.203 257.071 543.947 256.816L544.33 257.582C540.501 258.347 537.311 260.007 534.758 262.559L537.821 261.028L539.736 259.113C540.246 259.113 541.012 259.368 542.033 259.879C543.309 260.389 544.203 260.645 544.713 260.645C544.968 260.645 545.351 260.517 545.862 260.262C546.627 260.007 547.138 259.879 547.393 259.879C553.009 259.879 556.837 261.41 558.88 264.473C560.666 267.281 562.07 269.578 563.091 271.365C564.367 272.897 565.261 273.918 565.771 274.428C565.261 274.939 564.75 278.002 564.24 283.617C563.729 288.722 562.836 292.168 561.56 293.955C561.304 294.976 560.922 296.252 560.411 297.784C559.901 299.06 559.39 300.719 558.88 302.761C557.603 305.058 554.54 309.653 549.69 316.545C544.585 323.436 541.395 326.882 540.119 326.882C539.098 326.882 538.587 327.01 538.587 327.265L539.736 328.414C533.865 330.201 526.59 335.688 517.912 344.878C516.891 344.878 515.232 345.643 512.934 347.175C510.892 348.706 509.361 349.472 508.34 349.472V351.386H507.574C507.319 351.386 506.808 351.259 506.043 351.004C505.532 350.748 505.149 350.621 504.894 350.621C504.128 350.621 503.235 351.259 502.214 352.535C501.448 353.811 500.81 354.449 500.299 354.449L497.236 352.535C496.726 352.28 496.088 352.152 495.322 352.152C494.301 352.152 493.28 352.535 492.259 353.301C493.025 352.535 493.408 352.025 493.408 351.769C491.621 350.493 489.451 347.047 486.899 341.432C486.899 336.327 488.558 330.583 491.876 324.202C495.194 317.31 499.151 313.865 503.745 313.865C504.001 314.12 504.383 314.63 504.894 315.396C505.404 315.907 506.17 316.8 507.191 318.076C504.128 319.863 501.959 322.926 500.682 327.265C499.661 331.349 498.64 335.306 497.619 339.134C497.619 338.879 499.023 338.752 501.831 338.752C502.086 339.007 502.214 339.645 502.214 340.666H502.98C503.235 340.666 503.618 340.411 504.128 339.9C504.894 339.134 505.66 338.752 506.425 338.752C509.999 338.752 517.274 333.264 528.249 322.288C537.438 313.609 544.33 305.952 548.925 299.315L547.01 298.549C547.776 298.039 548.542 297.146 549.308 295.869C550.329 294.593 551.094 293.189 551.605 291.658C552.371 289.871 553.009 288.212 553.519 286.68C554.03 284.894 554.285 283.49 554.285 282.469C554.285 280.171 553.264 277.874 551.222 275.577C549.18 273.28 547.01 272.131 544.713 272.131C542.926 272.131 538.842 274.045 532.461 277.874C525.824 281.448 522.506 283.745 522.506 284.766C522.506 285.787 521.485 287.063 519.443 288.595C517.656 289.871 516.635 290.764 516.38 291.275C513.828 294.593 512.551 297.018 512.551 298.549L510.637 300.847C509.871 300.847 508.85 300.974 507.574 301.23C506.553 301.485 505.66 301.612 504.894 301.612C504.639 301.612 504.511 301.357 504.511 300.847C504.511 300.081 504.256 299.698 503.745 299.698C502.98 300.209 502.597 300.464 502.597 300.464ZM567.303 216.997C566.792 216.486 565.771 216.231 564.24 216.231C561.687 216.231 556.455 220.826 548.542 230.015C546.755 232.057 544.585 234.609 542.033 237.672C539.736 240.48 536.8 243.926 533.227 248.01L535.524 249.541C535.269 249.286 535.141 248.903 535.141 248.393C535.141 247.882 535.524 247.627 536.29 247.627L539.353 248.393C540.629 247.372 542.161 246.095 543.947 244.564C545.734 243.032 547.904 241.246 550.456 239.204L551.605 240.352L553.136 238.438C555.434 238.438 560.794 231.036 569.217 216.231L567.303 216.997ZM502.98 301.612C502.724 301.357 502.597 300.974 502.597 300.464L502.98 301.612ZM624.624 270.217C624.624 280.682 621.816 291.53 616.2 302.761C615.179 304.803 613.137 308.249 610.074 313.099C607.267 317.693 603.438 323.947 598.588 331.86C597.822 331.86 596.801 332.37 595.525 333.391C594.249 334.157 592.972 335.05 591.696 336.071C590.42 337.092 589.271 338.113 588.25 339.134C587.229 339.9 586.719 340.283 586.719 340.283C586.464 340.283 586.208 340.411 585.953 340.666C585.953 340.411 585.315 340.666 584.039 341.432C582.762 342.197 581.359 342.58 579.827 342.58C577.785 342.58 574.85 343.218 571.021 344.495C570.255 343.984 569.617 343.474 569.107 342.963L568.341 342.197C566.044 341.176 564.002 338.752 562.215 334.923C560.428 331.094 559.152 328.031 558.386 325.734L559.917 324.585C559.917 315.396 561.704 308.249 565.278 303.144C567.575 299.826 569.234 297.273 570.255 295.486C571.531 293.7 572.297 292.679 572.552 292.423C573.063 291.147 573.063 290.254 572.552 289.743C580.465 282.086 585.443 275.322 587.485 269.451C588.25 268.94 591.313 265.622 596.674 259.496C599.992 255.412 603.565 252.987 607.394 252.221L609.309 250.307H613.137C615.179 250.307 617.604 252.987 620.412 258.347C623.22 263.452 624.624 267.409 624.624 270.217ZM614.669 272.131C613.648 271.365 613.01 270.344 612.754 269.068V269.451C612.754 269.196 612.627 268.94 612.372 268.685L611.223 267.919C610.712 268.175 610.202 268.557 609.691 269.068C609.181 269.578 608.415 270.089 607.394 270.599L605.48 269.834C600.12 276.215 595.015 281.32 590.165 285.149L591.696 286.297C587.612 288.339 583.145 293.7 578.296 302.378C573.446 311.057 571.021 317.693 571.021 322.288C571.021 325.606 571.531 327.648 572.552 328.414C574.084 330.201 576.126 331.094 578.678 331.094C579.189 331.094 579.827 330.711 580.593 329.945L582.507 329.18C583.018 329.18 583.273 328.924 583.273 328.414C583.273 327.648 583.656 327.265 584.422 327.265C585.443 327.265 588.123 325.096 592.462 320.756C597.312 316.162 600.247 313.099 601.268 311.567C602.289 310.036 606.501 300.209 613.903 282.086C613.393 281.065 612.627 279.533 611.606 277.491C612.116 277.236 612.499 276.981 612.754 276.726C613.265 276.47 613.775 276.215 614.286 275.96C613.52 275.194 612.627 274.428 611.606 273.662C612.116 273.407 612.627 273.28 613.137 273.28C613.648 273.024 614.158 272.641 614.669 272.131ZM703.119 263.708C703.119 263.452 702.992 263.325 702.736 263.325C700.95 263.325 700.056 263.963 700.056 265.239C700.056 265.75 700.694 266.26 701.971 266.771L700.439 265.622C700.184 265.877 700.056 266.133 700.056 266.388C700.056 267.154 700.312 267.792 700.822 268.302C696.993 268.302 695.079 270.217 695.079 274.045C695.079 274.811 695.207 275.322 695.462 275.577C691.633 276.853 689.336 278.512 688.57 280.554C685.507 280.554 683.72 282.341 683.21 285.915C681.423 286.17 677.849 289.36 672.489 295.486C667.384 301.357 664.832 305.186 664.832 306.973L667.512 310.802C669.299 313.354 670.192 316.162 670.192 319.225L671.723 317.693C672.489 317.693 672.872 318.459 672.872 319.991C673.127 321.522 673.638 322.288 674.404 322.288C676.19 323.054 677.084 323.564 677.084 323.819C677.084 324.33 676.701 324.713 675.935 324.968C677.977 326.244 680.402 328.414 683.21 331.477C681.678 331.732 681.04 333.902 681.295 337.986H680.912C680.147 337.986 678.87 338.241 677.084 338.752C675.297 339.007 674.021 339.134 673.255 339.134C670.958 339.134 669.809 337.986 669.809 335.688C669.809 335.433 669.554 335.306 669.043 335.306C666.746 332.243 664.704 330.201 662.917 329.18L664.832 327.648C661.769 325.861 659.088 322.543 656.791 317.693H654.111C653.345 318.97 651.431 321.522 648.368 325.351C645.305 328.924 641.221 333.774 636.116 339.9C628.458 348.834 623.864 356.747 622.332 363.638H616.589C613.781 363.638 612.378 362.107 612.378 359.044C613.399 356.491 614.802 353.811 616.589 351.004C618.376 348.451 620.673 345.516 623.481 342.197C630.373 335.05 634.584 330.073 636.116 327.265C636.371 326.499 636.371 325.989 636.116 325.734C639.179 321.394 643.773 315.779 649.899 308.887C649.134 307.866 648.24 306.59 647.219 305.058C646.454 303.272 645.433 301.357 644.156 299.315C643.646 297.528 643.135 296.125 642.625 295.104C642.114 293.827 641.731 292.934 641.476 292.423C640.455 289.871 638.924 288.212 636.882 287.446C636.626 287.191 635.733 285.276 634.202 281.703C632.925 278.64 632.287 276.853 632.287 276.343C632.287 275.066 633.308 273.662 635.35 272.131C637.647 270.344 639.562 269.451 641.093 269.451C645.177 269.451 649.006 272.897 652.58 279.789C652.835 280.299 653.473 281.831 654.494 284.383C655.515 286.936 656.919 290.637 658.706 295.486C659.727 294.465 662.79 291.02 667.895 285.149C671.723 281.065 674.021 277.236 674.786 273.662C675.552 272.641 676.446 271.365 677.467 269.834C678.743 268.047 680.147 266.133 681.678 264.091L681.295 261.41C681.806 260.9 684.486 259.241 689.336 256.433C689.591 255.667 690.484 255.284 692.016 255.284C692.526 255.284 693.292 255.667 694.313 256.433C695.589 256.944 696.738 257.709 697.759 258.73C699.035 259.751 700.184 260.772 701.205 261.793C702.226 262.559 702.864 263.197 703.119 263.708Z" fill="white"/>
    </g>
    <defs>
        <filter id="filter0_d_0_1" x="0.0619225" y="0.818636" width="887.568" height="301.773" filterUnits="userSpaceOnUse" color-interpolation-filters="sRGB">
            <feFlood flood-opacity="0" result="BackgroundImageFix"/>
            <feColorMatrix in="SourceAlpha" type="matrix" values="0 0 0 0 0 0 0 0 0 0 0 0 0 0 0 0 0 0 127 0" result="hardAlpha"/>
            <feOffset/>
            <feGaussianBlur stdDeviation="0.495162"/>
            <feComposite in2="hardAlpha" operator="out"/>
            <feColorMatrix type="matrix" values="0 0 0 0 1 0 0 0 0 1 0 0 0 0 1 0 0 0 1 0"/>
            <feBlend mode="normal" in2="BackgroundImageFix" result="effect1_dropShadow_0_1"/>
            <feBlend mode="normal" in="SourceGraphic" in2="effect1_dropShadow_0_1" result="shape"/>
        </filter>
        <filter id="filter1_d_0_1" x="178.605" y="202.989" width="525.505" height="277.269" filterUnits="userSpaceOnUse" color-interpolation-filters="sRGB">
            <feFlood flood-opacity="0" result="BackgroundImageFix"/>
            <feColorMatrix in="SourceAlpha" type="matrix" values="0 0 0 0 0 0 0 0 0 0 0 0 0 0 0 0 0 0 127 0" result="hardAlpha"/>
            <feOffset/>
            <feGaussianBlur stdDeviation="0.495162"/>
            <feComposite in2="hardAlpha" operator="out"/>
            <feColorMatrix type="matrix" values="0 0 0 0 1 0 0 0 0 1 0 0 0 0 1 0 0 0 1 0"/>
            <feBlend mode="normal" in2="BackgroundImageFix" result="effect1_dropShadow_0_1"/>
            <feBlend mode="normal" in="SourceGraphic" in2="effect1_dropShadow_0_1" result="shape"/>
        </filter>
    </defs>
</svg>
